<svg version="1.1" id="Layer_1" xmlns="http://www.w3.org/2000/svg" xmlns:xlink="http://www.w3.org/1999/xlink" x="0px" y="0px"
	 width="100%" viewBox="0 0 1538 934" enable-background="new 0 0 1538 934" xml:space="preserve">
<path fill="#000000" opacity="1.000000" stroke="none" 
	d="
M985.000000,935.000000 
	C656.666687,935.000000 328.833344,935.000000 1.000000,935.000000 
	C1.000000,623.666687 1.000000,312.333344 1.000000,1.000000 
	C513.666687,1.000000 1026.333374,1.000000 1539.000000,1.000000 
	C1539.000000,312.333344 1539.000000,623.666687 1539.000000,935.000000 
	C1354.500000,935.000000 1170.000000,935.000000 985.000000,935.000000 
M1158.453491,417.286194 
	C1182.875610,410.047455 1204.788452,398.009430 1223.943481,381.384918 
	C1243.300781,364.584808 1258.385620,344.428741 1267.877808,320.378754 
	C1278.927612,292.382477 1281.229980,263.588318 1274.547119,234.349655 
	C1267.438354,203.248077 1251.440186,177.230225 1228.088135,155.411041 
	C1211.694946,140.093857 1193.161499,128.513885 1172.608643,119.858795 
	C1149.211792,110.006073 1124.648804,105.763351 1099.460449,105.143036 
	C1090.420410,104.920418 1081.339844,106.321411 1072.278564,106.993462 
	C1055.879639,108.209747 1040.069458,112.431862 1025.021851,118.577682 
	C998.536804,129.394760 974.330444,144.082108 956.035400,166.670563 
	C948.077942,176.495316 940.545776,186.863144 934.296570,197.825821 
	C925.153625,213.865021 919.939148,231.602112 918.289368,249.951263 
	C917.271667,261.270660 918.193359,272.831116 919.026062,284.226227 
	C919.560425,291.539429 921.516907,298.748779 922.228333,305.660675 
	C910.643616,281.115356 897.719910,257.322662 881.212158,235.698776 
	C869.881897,220.857086 858.507507,205.988800 846.182068,191.987000 
	C836.879028,181.418732 826.441223,171.739319 815.782349,162.502213 
	C802.036804,150.590195 788.165955,138.657410 773.287659,128.251190 
	C739.080933,104.326317 702.151489,85.448158 662.587891,71.844559 
	C635.548706,62.547359 607.951721,55.844006 579.605591,51.860687 
	C557.520752,48.757236 535.406189,46.724365 513.127747,47.083805 
	C500.590088,47.286091 488.052551,48.144840 475.540070,49.053452 
	C465.399750,49.789803 455.172089,50.369167 445.205444,52.216869 
	C428.593140,55.296600 412.100342,59.091896 395.662598,63.026054 
	C369.963837,69.176704 345.420898,78.653137 321.531189,89.850449 
	C295.770569,101.924652 270.905212,115.644722 248.363480,133.057922 
	C231.252426,146.275986 214.089783,159.631775 198.480545,174.529800 
	C183.958298,188.390366 171.123276,204.087814 158.155334,219.490097 
	C142.234436,238.399673 129.138626,259.299988 117.490402,281.073029 
	C105.945488,302.652954 95.731560,324.887573 88.197243,348.177155 
	C79.877373,373.894958 72.763992,399.975800 69.959206,427.001068 
	C68.551880,440.561310 66.492020,454.119843 66.172470,467.713104 
	C65.523514,495.319489 65.191673,522.984253 70.006035,550.363525 
	C72.177567,562.713013 73.686874,575.248291 76.883949,587.332214 
	C81.987297,606.621399 87.553284,625.849548 94.189766,644.656677 
	C103.273125,670.398193 115.712067,694.636353 129.947861,717.964417 
	C147.810654,747.235962 169.064606,773.827759 192.940292,798.337402 
	C199.964432,805.548035 207.525772,812.301880 215.317307,818.683411 
	C228.375793,829.378906 241.413239,840.179260 255.190643,849.899231 
	C276.250336,864.756836 298.350830,878.058533 322.238861,887.960144 
	C339.614105,895.162109 357.118744,902.139771 374.890442,908.277100 
	C401.287384,917.393188 428.502350,923.272888 456.331207,925.980408 
	C472.033081,927.508118 487.751862,929.016235 503.499054,929.861816 
	C511.891022,930.312439 520.370178,929.499756 528.791321,928.963745 
	C542.254700,928.106873 555.765198,927.515930 569.140076,925.871399 
	C584.024597,924.041199 599.022278,922.127258 613.531799,918.496155 
	C633.345032,913.537903 652.966248,907.564697 672.269165,900.871094 
	C702.735657,890.306396 731.239319,875.534119 758.455688,858.226807 
	C788.144897,839.346985 815.328918,817.449097 839.563843,791.923889 
	C844.236572,787.002319 849.013367,782.161621 853.414551,777.004089 
	C860.758545,768.397888 868.393188,759.957947 874.901245,750.739075 
	C885.156677,736.211670 895.406067,721.563416 904.136169,706.106812 
	C913.973877,688.689148 922.637207,670.548889 930.833435,652.284058 
	C936.377563,639.929321 940.232544,626.816528 944.945374,614.918701 
	C943.965942,624.936035 942.283875,634.946594 942.188293,644.972351 
	C942.073425,657.020630 943.094482,669.098145 944.012390,681.133362 
	C945.281372,697.772217 949.569702,713.758972 954.958679,729.511658 
	C962.562073,751.737671 973.439697,772.201172 987.074158,791.284546 
	C999.634338,808.864075 1014.505676,824.325256 1031.349609,837.667847 
	C1048.588379,851.323181 1067.574463,862.291870 1087.864502,871.033264 
	C1117.704102,883.888916 1148.967773,889.889221 1181.231934,890.850647 
	C1191.270752,891.149719 1201.487061,890.451355 1211.401367,888.846069 
	C1227.614624,886.220886 1243.861084,883.269104 1259.694458,878.981506 
	C1275.075928,874.816345 1289.549805,868.007812 1303.631104,860.285034 
	C1330.558105,845.517334 1353.766602,826.269043 1373.434326,802.937622 
	C1386.197876,787.796387 1396.612183,770.920288 1405.084351,752.894714 
	C1417.659668,726.139648 1425.196045,697.985413 1426.721924,668.586060 
	C1427.569092,652.263977 1426.709473,635.669739 1424.723022,619.430115 
	C1422.181152,598.651306 1415.916260,578.605591 1407.170166,559.524109 
	C1393.089600,528.804688 1373.640503,502.071960 1348.238037,479.521698 
	C1329.980835,463.314301 1309.909302,450.243958 1287.880249,439.931000 
	C1254.737061,424.414948 1219.819214,417.080963 1183.319946,417.042236 
	C1174.884521,417.033295 1166.448608,417.569397 1158.453491,417.286194 
z"/>
<path fill="#EE7D00" opacity="1.000000" stroke="none" 
	d="
M944.842957,614.042786 
	C940.232544,626.816528 936.377563,639.929321 930.833435,652.284058 
	C922.637207,670.548889 913.973877,688.689148 904.136169,706.106812 
	C895.406067,721.563416 885.156677,736.211670 874.901245,750.739075 
	C868.393188,759.957947 860.758545,768.397888 853.414551,777.004089 
	C849.013367,782.161621 844.236572,787.002319 839.563843,791.923889 
	C815.328918,817.449097 788.144897,839.346985 758.455688,858.226807 
	C731.239319,875.534119 702.735657,890.306396 672.269165,900.871094 
	C652.966248,907.564697 633.345032,913.537903 613.531799,918.496155 
	C599.022278,922.127258 584.024597,924.041199 569.140076,925.871399 
	C555.765198,927.515930 542.254700,928.106873 528.791321,928.963745 
	C520.370178,929.499756 511.891022,930.312439 503.499054,929.861816 
	C487.751862,929.016235 472.033081,927.508118 456.331207,925.980408 
	C428.502350,923.272888 401.287384,917.393188 374.890442,908.277100 
	C357.118744,902.139771 339.614105,895.162109 322.238861,887.960144 
	C298.350830,878.058533 276.250336,864.756836 255.190643,849.899231 
	C241.413239,840.179260 228.375793,829.378906 215.317307,818.683411 
	C207.525772,812.301880 199.964432,805.548035 192.940292,798.337402 
	C169.064606,773.827759 147.810654,747.235962 129.947861,717.964417 
	C115.712067,694.636353 103.273125,670.398193 94.189766,644.656677 
	C87.553284,625.849548 81.987297,606.621399 76.883949,587.332214 
	C73.686874,575.248291 72.177567,562.713013 70.006035,550.363525 
	C65.191673,522.984253 65.523514,495.319489 66.172470,467.713104 
	C66.492020,454.119843 68.551880,440.561310 69.959206,427.001068 
	C72.763992,399.975800 79.877373,373.894958 88.197243,348.177155 
	C95.731560,324.887573 105.945488,302.652954 117.490402,281.073029 
	C129.138626,259.299988 142.234436,238.399673 158.155334,219.490097 
	C171.123276,204.087814 183.958298,188.390366 198.480545,174.529800 
	C214.089783,159.631775 231.252426,146.275986 248.363480,133.057922 
	C270.905212,115.644722 295.770569,101.924652 321.531189,89.850449 
	C345.420898,78.653137 369.963837,69.176704 395.662598,63.026054 
	C412.100342,59.091896 428.593140,55.296600 445.205444,52.216869 
	C455.172089,50.369167 465.399750,49.789803 475.540070,49.053452 
	C488.052551,48.144840 500.590088,47.286091 513.127747,47.083805 
	C535.406189,46.724365 557.520752,48.757236 579.605591,51.860687 
	C607.951721,55.844006 635.548706,62.547359 662.587891,71.844559 
	C702.151489,85.448158 739.080933,104.326317 773.287659,128.251190 
	C788.165955,138.657410 802.036804,150.590195 815.782349,162.502213 
	C826.441223,171.739319 836.879028,181.418732 846.182068,191.987000 
	C858.507507,205.988800 869.881897,220.857086 881.212158,235.698776 
	C897.719910,257.322662 910.643616,281.115356 922.618469,306.201508 
	C927.186523,316.808807 931.364441,326.875244 935.729980,337.300232 
	C936.955688,340.741455 937.991638,343.824829 939.032104,346.906647 
	C947.786316,372.838806 954.966309,399.170898 957.957825,426.446594 
	C959.960510,444.706238 962.185791,463.008118 962.750122,481.339172 
	C963.262573,497.985565 961.842163,514.706909 960.909912,531.374817 
	C960.536865,538.045044 959.255554,544.670654 958.269714,551.299011 
	C956.903015,560.488525 955.425110,569.661499 953.656250,579.063232 
	C953.022583,580.876709 952.811279,582.489563 952.418945,584.057007 
	C949.915833,594.057861 947.372864,604.048706 944.842957,614.042786 
M766.534546,227.967148 
	C740.404297,205.095535 711.590942,186.424927 679.570496,172.889496 
	C610.579712,143.726196 538.921997,138.607315 465.904236,151.403549 
	C379.710144,166.508957 310.204071,210.538620 255.265778,277.934662 
	C214.168228,328.351410 191.163437,386.395630 184.791092,451.081696 
	C180.658905,493.027893 182.407211,534.679382 192.662674,575.632568 
	C216.992325,672.788147 276.041382,743.027344 362.514801,791.051758 
	C409.315399,817.043152 460.337311,828.604736 513.619934,831.297974 
	C587.881348,835.051697 657.044006,818.553589 720.680847,779.907043 
	C733.556641,772.087585 745.817017,763.254517 758.664612,754.686401 
	C710.222229,697.639038 662.473755,641.408936 614.062012,584.397705 
	C611.562195,587.245178 609.399109,590.009216 606.919006,592.451294 
	C604.313171,595.017151 601.480286,597.370850 598.615295,599.652405 
	C568.338318,623.763062 535.481201,629.414734 500.291779,611.873535 
	C478.000519,600.761841 463.621185,581.677063 454.013519,559.289062 
	C435.753906,516.740112 434.579102,472.696808 444.772369,428.076752 
	C449.007996,409.535828 457.148773,392.625519 468.582153,377.376190 
	C493.418488,344.250366 530.335754,331.186981 570.820068,341.149078 
	C602.245789,348.882111 627.104065,379.425262 628.238464,411.996399 
	C585.931885,411.996399 543.634949,411.996399 501.356445,411.996399 
	C486.973053,449.636810 485.154083,487.443115 496.744446,525.854492 
	C497.720673,529.089783 499.534485,528.934204 501.908142,528.934692 
	C626.227295,528.959351 750.546509,528.999207 874.865662,529.019714 
	C876.134583,529.019897 877.403564,528.783508 878.752380,528.649658 
	C891.247925,409.817657 857.313416,308.649628 766.534546,227.967148 
z"/>
<path fill="#312782" opacity="1.000000" stroke="none" 
	d="
M944.894165,614.480713 
	C947.372864,604.048706 949.915833,594.057861 952.418945,584.057007 
	C952.811279,582.489563 953.022583,580.876709 953.974854,578.906006 
	C960.842651,559.246033 969.881958,541.317566 981.081909,524.511841 
	C993.832458,505.379486 1009.084229,488.472656 1026.728149,473.636719 
	C1041.849365,460.922028 1058.140625,450.005524 1075.978149,441.729156 
	C1088.933594,435.718018 1102.622437,431.287415 1116.383301,426.075867 
	C1130.525879,423.284698 1144.269409,420.569733 1158.012939,417.854736 
	C1166.448608,417.569397 1174.884521,417.033295 1183.319946,417.042236 
	C1219.819214,417.080963 1254.737061,424.414948 1287.880249,439.931000 
	C1309.909302,450.243958 1329.980835,463.314301 1348.238037,479.521698 
	C1373.640503,502.071960 1393.089600,528.804688 1407.170166,559.524109 
	C1415.916260,578.605591 1422.181152,598.651306 1424.723022,619.430115 
	C1426.709473,635.669739 1427.569092,652.263977 1426.721924,668.586060 
	C1425.196045,697.985413 1417.659668,726.139648 1405.084351,752.894714 
	C1396.612183,770.920288 1386.197876,787.796387 1373.434326,802.937622 
	C1353.766602,826.269043 1330.558105,845.517334 1303.631104,860.285034 
	C1289.549805,868.007812 1275.075928,874.816345 1259.694458,878.981506 
	C1243.861084,883.269104 1227.614624,886.220886 1211.401367,888.846069 
	C1201.487061,890.451355 1191.270752,891.149719 1181.231934,890.850647 
	C1148.967773,889.889221 1117.704102,883.888916 1087.864502,871.033264 
	C1067.574463,862.291870 1048.588379,851.323181 1031.349609,837.667847 
	C1014.505676,824.325256 999.634338,808.864075 987.074158,791.284546 
	C973.439697,772.201172 962.562073,751.737671 954.958679,729.511658 
	C949.569702,713.758972 945.281372,697.772217 944.012390,681.133362 
	C943.094482,669.098145 942.073425,657.020630 942.188293,644.972351 
	C942.283875,634.946594 943.965942,624.936035 944.894165,614.480713 
M1090.728394,532.342041 
	C1090.569702,532.688660 1090.411133,533.035278 1090.230225,533.191956 
	C1090.230225,533.191956 1090.421143,533.202759 1089.816162,533.433777 
	C1089.564575,533.994995 1089.312988,534.556274 1089.032593,535.034119 
	C1089.032593,535.034119 1089.117432,535.010132 1088.633667,535.289612 
	C1088.458008,535.612610 1088.282349,535.935608 1088.097290,536.075317 
	C1088.097290,536.075317 1088.280762,536.079590 1087.708130,536.360229 
	C1087.478516,536.927246 1087.248901,537.494324 1086.996094,538.002869 
	C1086.996094,538.002869 1087.057861,537.990845 1086.586914,538.271057 
	C1086.423462,538.592468 1086.260010,538.913879 1086.079956,539.063965 
	C1086.079956,539.063965 1086.251953,539.058594 1085.690430,539.357483 
	C1085.468872,539.927795 1085.247437,540.498047 1085.001831,541.005737 
	C1085.001831,541.005737 1085.067627,540.992676 1084.597046,541.285400 
	C1084.441528,541.615295 1084.286133,541.945190 1084.112915,542.086060 
	C1084.112915,542.086060 1084.302734,542.083923 1083.725830,542.383301 
	C1083.510864,542.968384 1083.296021,543.553467 1083.047974,544.037476 
	C1083.047974,544.037476 1083.151001,544.010864 1082.617554,544.340454 
	C1082.419312,544.914612 1082.221069,545.488831 1081.997559,546.004211 
	C1081.997559,546.004211 1082.059814,545.989197 1081.595703,546.298401 
	C1081.462280,546.639709 1081.328979,546.981079 1081.164795,547.127380 
	C1081.164795,547.127380 1081.361938,547.119324 1080.770508,547.433838 
	C1080.583740,548.043335 1080.396973,548.652832 1080.166870,549.111328 
	C1080.166870,549.111328 1080.322510,549.089478 1079.741455,549.409851 
	C1079.547607,550.014160 1079.353638,550.618530 1079.116699,551.078552 
	C1079.116699,551.078552 1079.264648,551.050354 1078.698853,551.396545 
	C1078.524170,552.008972 1078.349487,552.621338 1078.110474,553.081360 
	C1078.110474,553.081360 1078.267944,553.030945 1077.670532,553.483276 
	C1077.463501,554.183899 1077.256348,554.884521 1077.076172,555.598633 
	C1077.076172,555.598633 1077.070068,555.628296 1076.586060,556.223633 
	C1076.412354,556.695374 1076.238770,557.167053 1076.109741,557.577942 
	C1076.109741,557.577942 1076.156738,557.637024 1075.513550,558.162659 
	C1075.036865,559.647278 1074.560181,561.131958 1074.119141,562.624451 
	C1074.119141,562.624451 1074.114136,562.660583 1073.504517,563.151611 
	C1072.736572,565.844727 1071.968628,568.537842 1071.141235,571.084167 
	C1071.141235,571.084167 1071.293945,571.041870 1070.672852,571.481018 
	C1070.209106,573.742432 1069.745361,576.003906 1069.218262,578.113770 
	C1069.218262,578.113770 1069.378174,578.076172 1068.739258,578.517334 
	C1067.193604,588.006958 1065.647827,597.496582 1064.057251,607.924316 
	C1064.053101,678.854858 1064.043335,749.785339 1064.085693,820.715881 
	C1064.086426,822.124878 1064.697632,823.533508 1065.954956,825.001648 
	C1087.298462,824.985291 1108.641846,824.968994 1130.924072,824.983521 
	C1138.249512,824.991211 1145.589111,824.724243 1152.895142,825.104858 
	C1157.640869,825.351990 1159.115723,823.950378 1159.104248,819.054565 
	C1158.947754,751.960693 1159.001831,684.866394 1158.959473,617.772156 
	C1158.958496,616.173157 1158.443481,614.574402 1158.025513,612.161987 
	C1158.333008,610.416016 1158.707275,608.678833 1158.936646,606.922668 
	C1159.982422,598.917908 1162.504761,591.483582 1167.443726,585.007568 
	C1173.317139,577.306396 1181.434204,574.839783 1190.775757,574.577576 
	C1199.346313,574.336853 1207.779297,574.552185 1215.122314,579.480408 
	C1227.874512,588.039001 1233.808960,599.964722 1230.993408,615.360596 
	C1228.536255,628.797241 1220.626099,638.319336 1207.857178,643.000549 
	C1195.892456,647.386963 1184.471680,645.764587 1174.033691,636.707092 
	C1169.818726,635.629639 1172.107544,639.065735 1172.103394,640.021851 
	C1171.970581,670.653931 1171.985229,701.286865 1172.069336,731.919373 
	C1172.073975,733.615417 1172.863037,735.309326 1173.011719,737.011414 
	C1173.011719,737.011414 1173.003662,736.736145 1173.485352,737.331909 
	C1175.001343,737.553345 1176.517212,737.774780 1178.846069,738.150940 
	C1183.442627,738.642029 1188.069580,739.732239 1192.629517,739.500916 
	C1202.457031,739.002014 1212.249878,737.823792 1222.859253,736.964905 
	C1227.583496,735.538635 1232.371460,734.293030 1237.021118,732.654846 
	C1257.133423,725.568909 1275.296021,714.861450 1289.714966,699.284912 
	C1298.916626,689.344543 1305.718506,677.182678 1314.199951,665.672485 
	C1314.432251,665.047607 1314.664429,664.422668 1314.945801,663.959167 
	C1314.945801,663.959167 1314.782349,664.001282 1315.328125,663.610474 
	C1315.490967,662.983582 1315.653809,662.356750 1315.929688,661.895142 
	C1315.929688,661.895142 1315.759033,661.999756 1316.326782,661.504761 
	C1316.529419,660.794678 1316.732056,660.084656 1316.951660,659.447144 
	C1316.951660,659.447144 1316.877197,659.451660 1317.356812,658.889893 
	C1317.545166,658.206787 1317.733398,657.523682 1317.963745,656.978271 
	C1317.963745,656.978271 1317.824829,657.015808 1318.378174,656.591736 
	C1318.580688,655.705566 1318.783081,654.819397 1319.013428,653.999939 
	C1319.013428,653.999939 1318.947266,654.028870 1319.498779,653.539734 
	C1319.649902,652.827209 1319.801147,652.114624 1319.929810,651.479065 
	C1319.929810,651.479065 1319.902344,651.403687 1320.418701,650.755371 
	C1320.598022,649.973450 1320.777466,649.191528 1320.911255,648.458740 
	C1320.911255,648.458740 1320.898804,648.393005 1321.401489,647.802917 
	C1321.582275,646.832886 1321.763062,645.862915 1321.978027,644.994080 
	C1321.978027,644.994080 1321.876099,645.025940 1322.425781,644.548096 
	C1322.535400,643.608093 1322.645020,642.668030 1322.837524,641.912476 
	C1322.837524,641.912476 1322.645752,641.976562 1323.260010,641.494446 
	C1323.521851,640.897949 1323.876099,640.324585 1324.031982,639.701599 
	C1327.488037,625.892090 1327.670776,611.812378 1326.712158,597.769531 
	C1326.293213,591.629822 1324.170898,585.606323 1322.917847,579.528442 
	C1322.917847,579.528442 1322.910889,579.623901 1322.966675,578.774902 
	C1322.276001,576.719727 1321.585449,574.664612 1320.908813,572.544128 
	C1320.908813,572.544128 1320.956299,572.591248 1320.912231,571.778809 
	C1320.571655,571.040344 1320.231079,570.301880 1319.961182,569.530151 
	C1319.961182,569.530151 1319.944580,569.606262 1319.922974,568.864136 
	C1319.596680,568.233215 1319.270386,567.602295 1319.011475,567.000488 
	C1319.011475,567.000488 1318.983398,567.068298 1318.977417,566.363647 
	C1318.587769,565.571472 1318.197998,564.779297 1317.957031,564.027710 
	C1317.957031,564.027710 1317.910767,564.174683 1317.881714,563.452026 
	C1317.543335,562.813477 1317.204956,562.174988 1316.947266,561.508057 
	C1316.947266,561.508057 1316.972290,561.589844 1316.761475,560.875122 
	C1316.487671,560.455872 1316.213867,560.036621 1315.925903,559.580383 
	C1315.925903,559.580383 1315.964722,559.586914 1315.919189,558.835876 
	C1315.541504,558.220581 1315.163818,557.605286 1314.953979,557.059998 
	C1314.953979,557.059998 1314.877563,557.225159 1314.850342,556.518982 
	C1314.416748,556.007629 1313.983276,555.496277 1313.073853,554.541138 
	C1290.240356,513.590515 1255.931885,489.783234 1208.705078,484.138092 
	C1208.002930,483.776642 1207.291260,483.083649 1206.599854,483.103149 
	C1195.032349,483.429291 1183.426270,483.390167 1171.919189,484.431885 
	C1166.180176,484.951447 1160.623535,487.484924 1155.010254,489.022522 
	C1155.010254,489.022522 1155.094360,489.050995 1154.338135,489.028595 
	C1153.409424,489.400818 1152.480713,489.773041 1151.567627,490.064636 
	C1151.567627,490.064636 1151.645874,490.089844 1150.889038,490.087891 
	C1150.252197,490.430847 1149.615479,490.773804 1149.020874,491.022644 
	C1149.020874,491.022644 1149.113770,491.067810 1148.401855,491.028259 
	C1147.597900,491.419586 1146.794067,491.810944 1146.039917,492.050720 
	C1146.039917,492.050720 1146.189209,492.107086 1145.543213,492.104492 
	C1145.021851,492.422760 1144.500610,492.741058 1144.003418,492.994720 
	C1144.003418,492.994720 1144.067261,493.020630 1143.359009,493.009796 
	C1142.578979,493.432220 1141.798950,493.854645 1141.071045,494.097839 
	C1141.071045,494.097839 1141.246216,494.162384 1140.583984,494.131195 
	C1140.052124,494.463135 1139.520142,494.795105 1139.018555,495.024445 
	C1139.018555,495.024445 1139.119995,495.057831 1138.486450,495.085815 
	C1137.988525,495.423370 1137.490723,495.760925 1137.015747,496.019714 
	C1137.015747,496.019714 1137.093750,496.045288 1136.466431,496.070770 
	C1135.972412,496.406464 1135.478394,496.742126 1135.006226,497.004303 
	C1135.006226,497.004303 1135.079468,497.026764 1134.457520,497.069580 
	C1133.965210,497.400330 1133.473022,497.731079 1133.003662,497.995331 
	C1133.003662,497.995331 1133.070312,498.017456 1132.448608,498.068420 
	C1131.962036,498.407593 1131.475342,498.746735 1131.008423,499.010742 
	C1131.008423,499.010742 1131.083252,499.032013 1130.454102,499.073761 
	C1129.968018,499.425934 1129.481934,499.778107 1129.019165,500.026733 
	C1129.019165,500.026733 1129.121704,500.053589 1128.439575,500.119965 
	C1127.954712,500.556915 1127.469849,500.993866 1126.561768,501.914520 
	C1115.471191,508.761902 1104.605469,515.896484 1095.553223,526.249451 
	C1095.416138,526.590271 1095.278931,526.931030 1095.120728,527.104065 
	C1095.120728,527.104065 1095.289673,527.100281 1094.758789,527.354248 
	C1094.579956,527.693665 1094.401001,528.033081 1094.205322,528.178528 
	C1094.205322,528.178528 1094.399658,528.191650 1093.798096,528.410950 
	C1093.537231,528.960205 1093.276367,529.509399 1092.996460,529.999512 
	C1092.996460,529.999512 1093.058228,529.993958 1092.584595,530.244385 
	C1092.403442,530.546326 1092.222290,530.848206 1092.032349,531.029602 
	C1092.032349,531.029602 1092.153198,531.025635 1091.655151,531.285339 
	C1091.463501,531.600769 1091.271729,531.916199 1091.068848,532.060974 
	C1091.068848,532.060974 1091.239868,532.059937 1090.728394,532.342041 
z"/>
<path fill="#029541" opacity="1.000000" stroke="none" 
	d="
M1158.233154,417.570465 
	C1144.269409,420.569733 1130.525879,423.284698 1115.916870,426.019379 
	C1098.499146,425.342438 1081.722168,426.116455 1065.443848,423.628052 
	C1035.968018,419.122284 1008.736389,408.150513 984.444275,390.290802 
	C969.454163,379.270111 956.104431,366.806610 945.655823,351.341827 
	C942.372620,346.482361 938.918335,341.738495 935.542358,336.941681 
	C931.364441,326.875244 927.186523,316.808807 922.922241,306.373505 
	C921.516907,298.748779 919.560425,291.539429 919.026062,284.226227 
	C918.193359,272.831116 917.271667,261.270660 918.289368,249.951263 
	C919.939148,231.602112 925.153625,213.865021 934.296570,197.825821 
	C940.545776,186.863144 948.077942,176.495316 956.035400,166.670563 
	C974.330444,144.082108 998.536804,129.394760 1025.021851,118.577682 
	C1040.069458,112.431862 1055.879639,108.209747 1072.278564,106.993462 
	C1081.339844,106.321411 1090.420410,104.920418 1099.460449,105.143036 
	C1124.648804,105.763351 1149.211792,110.006073 1172.608643,119.858795 
	C1193.161499,128.513885 1211.694946,140.093857 1228.088135,155.411041 
	C1251.440186,177.230225 1267.438354,203.248077 1274.547119,234.349655 
	C1281.229980,263.588318 1278.927612,292.382477 1267.877808,320.378754 
	C1258.385620,344.428741 1243.300781,364.584808 1223.943481,381.384918 
	C1204.788452,398.009430 1182.875610,410.047455 1158.233154,417.570465 
M1149.649170,303.499786 
	C1149.649170,318.579834 1149.649170,333.659882 1149.649170,348.775696 
	C1170.872925,348.775696 1191.253662,348.775696 1211.785889,348.775696 
	C1211.866577,347.406128 1211.977783,346.426788 1211.974365,345.447845 
	C1211.866577,315.618073 1212.061890,285.781921 1211.455322,255.962143 
	C1211.250610,245.907410 1210.262573,235.529938 1207.476685,225.925247 
	C1195.722656,185.401230 1146.943237,169.873825 1111.334839,194.899139 
	C1106.765991,198.110016 1102.530518,201.795044 1098.101807,205.291016 
	C1095.366455,202.877258 1092.830688,200.467789 1090.119751,198.274994 
	C1071.884399,183.525574 1051.397461,178.686310 1028.797974,185.418991 
	C1002.556824,193.236618 983.953308,218.664566 983.767883,246.838974 
	C983.554016,279.333710 983.755554,311.831207 983.795166,344.327484 
	C983.796753,345.613617 983.988953,346.899475 984.107910,348.378571 
	C1004.895569,348.378571 1025.421631,348.378571 1046.241333,348.378571 
	C1046.241333,346.127960 1046.246094,344.306641 1046.240479,342.485291 
	C1046.160645,316.155060 1045.979370,289.824371 1046.087769,263.494934 
	C1046.108032,258.580170 1046.841309,253.554520 1048.068604,248.792191 
	C1049.181274,244.474594 1052.687500,242.529770 1057.296875,242.855194 
	C1061.888428,243.179337 1064.782715,245.475342 1065.635132,250.000229 
	C1066.156128,252.766296 1066.600952,255.596558 1066.615845,258.400421 
	C1066.764648,286.563385 1066.817383,314.726898 1066.896118,342.890228 
	C1066.901123,344.672241 1066.896851,346.454254 1066.896851,348.596161 
	C1087.867432,348.596161 1108.255127,348.596161 1129.125854,348.596161 
	C1129.125854,346.530823 1129.128174,344.733490 1129.125244,342.936157 
	C1129.082886,316.439178 1128.963867,289.941864 1129.069092,263.445465 
	C1129.087280,258.835297 1129.562256,254.102585 1130.711914,249.655472 
	C1131.916992,244.994415 1135.443359,242.737701 1140.565186,243.092712 
	C1145.708130,243.449188 1147.909912,246.556732 1148.600586,251.078888 
	C1149.151855,254.688492 1149.545044,258.357971 1149.577515,262.004730 
	C1149.697876,275.502197 1149.639526,289.001282 1149.649170,303.499786 
z"/>
<path fill="#FFFFFF" opacity="1.000000" stroke="none" 
	d="
M766.801880,228.199265 
	C857.313416,308.649628 891.247925,409.817657 878.752380,528.649658 
	C877.403564,528.783508 876.134583,529.019897 874.865662,529.019714 
	C750.546509,528.999207 626.227295,528.959351 501.908142,528.934692 
	C499.534485,528.934204 497.720673,529.089783 496.744446,525.854492 
	C485.154083,487.443115 486.973053,449.636810 501.356445,411.996399 
	C543.634949,411.996399 585.931885,411.996399 628.238464,411.996399 
	C627.104065,379.425262 602.245789,348.882111 570.820068,341.149078 
	C530.335754,331.186981 493.418488,344.250366 468.582153,377.376190 
	C457.148773,392.625519 449.007996,409.535828 444.772369,428.076752 
	C434.579102,472.696808 435.753906,516.740112 454.013519,559.289062 
	C463.621185,581.677063 478.000519,600.761841 500.291779,611.873535 
	C535.481201,629.414734 568.338318,623.763062 598.615295,599.652405 
	C601.480286,597.370850 604.313171,595.017151 606.919006,592.451294 
	C609.399109,590.009216 611.562195,587.245178 614.062012,584.397705 
	C662.473755,641.408936 710.222229,697.639038 758.664612,754.686401 
	C745.817017,763.254517 733.556641,772.087585 720.680847,779.907043 
	C657.044006,818.553589 587.881348,835.051697 513.619934,831.297974 
	C460.337311,828.604736 409.315399,817.043152 362.514801,791.051758 
	C276.041382,743.027344 216.992325,672.788147 192.662674,575.632568 
	C182.407211,534.679382 180.658905,493.027893 184.791092,451.081696 
	C191.163437,386.395630 214.168228,328.351410 255.265778,277.934662 
	C310.204071,210.538620 379.710144,166.508957 465.904236,151.403549 
	C538.921997,138.607315 610.579712,143.726196 679.570496,172.889496 
	C711.590942,186.424927 740.404297,205.095535 766.801880,228.199265 
z"/>
<path fill="#000000" opacity="1.000000" stroke="none" 
	d="
M935.730042,337.300232 
	C938.918335,341.738495 942.372620,346.482361 945.655823,351.341827 
	C956.104431,366.806610 969.454163,379.270111 984.444275,390.290802 
	C1008.736389,408.150513 1035.968018,419.122284 1065.443848,423.628052 
	C1081.722168,426.116455 1098.499146,425.342438 1115.517822,426.095581 
	C1102.622437,431.287415 1088.933594,435.718018 1075.978149,441.729156 
	C1058.140625,450.005524 1041.849365,460.922028 1026.728149,473.636719 
	C1009.084229,488.472656 993.832458,505.379486 981.081909,524.511841 
	C969.881958,541.317566 960.842651,559.246033 954.313477,578.684326 
	C955.425110,569.661499 956.903015,560.488525 958.269714,551.299011 
	C959.255554,544.670654 960.536865,538.045044 960.909912,531.374817 
	C961.842163,514.706909 963.262573,497.985565 962.750122,481.339172 
	C962.185791,463.008118 959.960510,444.706238 957.957825,426.446594 
	C954.966309,399.170898 947.786316,372.838806 939.032104,346.906647 
	C937.991638,343.824829 936.955688,340.741455 935.730042,337.300232 
z"/>
<path fill="#FFFFFF" opacity="1.000000" stroke="none" 
	d="
M1313.596313,666.016785 
	C1305.718506,677.182678 1298.916626,689.344543 1289.714966,699.284912 
	C1275.296021,714.861450 1257.133423,725.568909 1237.021118,732.654846 
	C1232.371460,734.293030 1227.583496,735.538635 1222.241943,736.629639 
	C1207.077759,736.581665 1192.530762,736.869019 1177.576050,737.081726 
	C1175.780151,736.916748 1174.391846,736.826477 1173.003662,736.736206 
	C1173.003662,736.736145 1173.011719,737.011414 1173.142334,736.530396 
	C1173.207153,704.270874 1173.126221,672.492432 1173.135986,640.713989 
	C1173.136353,639.549866 1174.024536,638.385925 1174.499023,637.221863 
	C1184.471680,645.764587 1195.892456,647.386963 1207.857178,643.000549 
	C1220.626099,638.319336 1228.536255,628.797241 1230.993408,615.360596 
	C1233.808960,599.964722 1227.874512,588.039001 1215.122314,579.480408 
	C1207.779297,574.552185 1199.346313,574.336853 1190.775757,574.577576 
	C1181.434204,574.839783 1173.317139,577.306396 1167.443726,585.007568 
	C1162.504761,591.483582 1159.982422,598.917908 1158.936646,606.922668 
	C1158.707275,608.678833 1158.333008,610.416016 1158.021973,613.036255 
	C1158.018555,683.872375 1158.018555,753.834351 1158.018555,824.169495 
	C1148.280029,824.169495 1139.153320,824.169495 1129.562622,824.087097 
	C1107.776367,823.919739 1086.453979,823.834778 1065.146973,823.297119 
	C1065.095215,750.894348 1065.028076,678.944397 1065.093506,606.613159 
	C1066.609985,596.846741 1067.994019,587.461426 1069.378174,578.076172 
	C1069.378174,578.076172 1069.218262,578.113770 1069.520386,577.932861 
	C1070.312988,575.515198 1070.803467,573.278564 1071.293945,571.041870 
	C1071.293945,571.041870 1071.141235,571.084167 1071.453613,570.923584 
	C1072.548706,568.062134 1073.331421,565.361389 1074.114136,562.660583 
	C1074.114136,562.660583 1074.119141,562.624451 1074.413330,562.387329 
	C1075.190552,560.645813 1075.673584,559.141418 1076.156738,557.637024 
	C1076.156738,557.637024 1076.109741,557.577942 1076.422363,557.386841 
	C1076.846558,556.673279 1076.958252,556.150757 1077.070068,555.628296 
	C1077.070068,555.628296 1077.076172,555.598633 1077.372314,555.383850 
	C1077.868408,554.456360 1078.068237,553.743652 1078.268066,553.030945 
	C1078.267944,553.030945 1078.110474,553.081360 1078.426025,552.997803 
	C1078.915894,552.292908 1079.090332,551.671631 1079.264648,551.050354 
	C1079.264648,551.050354 1079.116699,551.078552 1079.425781,551.002075 
	C1079.930664,550.313538 1080.126587,549.701538 1080.322510,549.089478 
	C1080.322510,549.089478 1080.166870,549.111328 1080.471680,549.032471 
	C1080.971680,548.342163 1081.166870,547.730774 1081.361938,547.119324 
	C1081.361938,547.119324 1081.164795,547.127380 1081.451660,547.108154 
	C1081.845703,546.722351 1081.952759,546.355774 1082.059814,545.989197 
	C1082.059814,545.989197 1081.997559,546.004211 1082.259521,545.854065 
	C1082.731323,545.139587 1082.941162,544.575195 1083.151001,544.010864 
	C1083.151001,544.010864 1083.047974,544.037476 1083.346924,543.943970 
	C1083.864868,543.261597 1084.083740,542.672729 1084.302734,542.083923 
	C1084.302734,542.083923 1084.112915,542.086060 1084.398071,542.076538 
	C1084.811401,541.708862 1084.939575,541.350769 1085.067627,540.992676 
	C1085.067627,540.992676 1085.001831,541.005737 1085.275146,540.873779 
	C1085.782837,540.180664 1086.017334,539.619629 1086.251953,539.058594 
	C1086.251953,539.058594 1086.079956,539.063965 1086.364502,539.052490 
	C1086.785278,538.691040 1086.921631,538.340942 1087.057861,537.990845 
	C1087.057861,537.990845 1086.996094,538.002869 1087.263916,537.865784 
	C1087.781372,537.179016 1088.031128,536.629272 1088.280762,536.079590 
	C1088.280762,536.079590 1088.097290,536.075317 1088.385010,536.073242 
	C1088.820923,535.717468 1088.969238,535.363770 1089.117432,535.010132 
	C1089.117432,535.010132 1089.032593,535.034119 1089.328125,534.947632 
	C1089.889526,534.308289 1090.155273,533.755493 1090.421143,533.202759 
	C1090.421143,533.202759 1090.230225,533.191956 1090.516602,533.168823 
	C1090.948608,532.783691 1091.094238,532.421814 1091.239868,532.059937 
	C1091.239868,532.059937 1091.068848,532.060974 1091.359131,532.059326 
	C1091.817261,531.713623 1091.985229,531.369629 1092.153198,531.025635 
	C1092.153198,531.025635 1092.032349,531.029602 1092.305176,531.001282 
	C1092.738159,530.646667 1092.898193,530.320312 1093.058228,529.993958 
	C1093.058228,529.993958 1092.996460,529.999512 1093.276611,529.891907 
	C1093.837891,529.253418 1094.118774,528.722534 1094.399658,528.191650 
	C1094.399658,528.191650 1094.205322,528.178528 1094.498535,528.171997 
	C1094.957764,527.810364 1095.123779,527.455322 1095.289673,527.100281 
	C1095.289673,527.100281 1095.120728,527.104065 1095.436157,527.071777 
	C1095.821289,526.649170 1095.891113,526.258911 1095.960938,525.868591 
	C1104.605469,515.896484 1115.471191,508.761902 1127.082031,501.547729 
	C1128.108887,500.805206 1128.615356,500.429413 1129.121704,500.053589 
	C1129.121704,500.053589 1129.019165,500.026733 1129.322021,500.056946 
	C1130.110962,499.735474 1130.597168,499.383728 1131.083252,499.031982 
	C1131.083252,499.032013 1131.008423,499.010742 1131.305420,499.027649 
	C1132.091797,498.702179 1132.581055,498.359833 1133.070312,498.017456 
	C1133.070312,498.017456 1133.003662,497.995331 1133.302734,498.018677 
	C1134.094360,497.703583 1134.586914,497.365204 1135.079468,497.026794 
	C1135.079468,497.026764 1135.006226,497.004303 1135.312012,497.031555 
	C1136.109863,496.720978 1136.601807,496.383148 1137.093750,496.045288 
	C1137.093750,496.045288 1137.015747,496.019714 1137.321777,496.049255 
	C1138.125122,495.738434 1138.622559,495.398102 1139.119995,495.057800 
	C1139.119995,495.057831 1139.018555,495.024445 1139.334717,495.072083 
	C1140.182617,494.800598 1140.714355,494.481476 1141.246216,494.162384 
	C1141.246216,494.162384 1141.071045,494.097839 1141.389648,494.157471 
	C1142.494629,493.818298 1143.281006,493.419434 1144.067261,493.020630 
	C1144.067261,493.020630 1144.003418,492.994720 1144.314209,493.024597 
	C1145.146484,492.738708 1145.667847,492.422913 1146.189209,492.107086 
	C1146.189209,492.107086 1146.039917,492.050720 1146.368164,492.117310 
	C1147.502075,491.811859 1148.307983,491.439819 1149.113770,491.067810 
	C1149.113770,491.067810 1149.020874,491.022644 1149.381470,491.074829 
	C1150.376709,490.781281 1151.011230,490.435547 1151.645874,490.089844 
	C1151.645874,490.089844 1151.567627,490.064636 1151.966064,490.103882 
	C1153.274414,489.779083 1154.184448,489.415039 1155.094360,489.050995 
	C1155.094360,489.050995 1155.010254,489.022522 1155.410034,489.072510 
	C1156.458130,488.988190 1157.118164,488.894501 1157.753174,488.713654 
	C1174.566162,483.924835 1191.651733,482.787292 1208.979736,484.865356 
	C1255.931885,489.783234 1290.240356,513.590515 1313.440186,555.079407 
	C1314.163574,556.153503 1314.520508,556.689331 1314.877563,557.225159 
	C1314.877563,557.225159 1314.953979,557.059998 1314.894043,557.403564 
	C1315.210938,558.360413 1315.587891,558.973633 1315.964722,559.586914 
	C1315.964722,559.586914 1315.925903,559.580383 1315.958374,560.009888 
	C1316.317993,560.822815 1316.645142,561.206360 1316.972290,561.589844 
	C1316.972290,561.589844 1316.947266,561.508057 1316.916260,561.914490 
	C1317.227051,562.938843 1317.568970,563.556763 1317.910767,564.174683 
	C1317.910767,564.174683 1317.957031,564.027710 1317.893677,564.352661 
	C1318.214600,565.474548 1318.598999,566.271423 1318.983398,567.068298 
	C1318.983398,567.068298 1319.011475,567.000488 1318.977051,567.362671 
	C1319.276611,568.351990 1319.610596,568.979126 1319.944580,569.606201 
	C1319.944580,569.606262 1319.961182,569.530151 1319.935303,569.985107 
	C1320.258423,571.157166 1320.607300,571.874207 1320.956299,572.591248 
	C1320.956299,572.591248 1320.908813,572.544128 1320.908813,573.020386 
	C1321.576172,575.539124 1322.243530,577.581543 1322.910889,579.623901 
	C1322.910889,579.623901 1322.917847,579.528442 1322.862305,580.012573 
	C1323.863281,591.161316 1325.730469,601.825439 1325.738403,612.490906 
	C1325.745850,622.318665 1323.755859,632.147949 1322.645752,641.976562 
	C1322.645752,641.976562 1322.837524,641.912476 1322.522705,642.052490 
	C1322.097290,643.137024 1321.986694,644.081482 1321.876099,645.025940 
	C1321.876099,645.025940 1321.978027,644.994080 1321.675049,645.184570 
	C1321.214233,646.381104 1321.056519,647.387024 1320.898804,648.393005 
	C1320.898804,648.393005 1320.911255,648.458740 1320.611084,648.691711 
	C1320.174805,649.751038 1320.038574,650.577332 1319.902344,651.403687 
	C1319.902344,651.403687 1319.929810,651.479065 1319.638550,651.662415 
	C1319.213989,652.573425 1319.080566,653.301147 1318.947266,654.028870 
	C1318.947266,654.028870 1319.013428,653.999939 1318.750122,654.199097 
	C1318.266235,655.270813 1318.045532,656.143311 1317.824829,657.015808 
	C1317.824829,657.015808 1317.963745,656.978271 1317.637451,657.114502 
	C1317.166626,657.984436 1317.021851,658.718018 1316.877197,659.451660 
	C1316.877197,659.451660 1316.951660,659.447144 1316.626465,659.622375 
	C1316.120605,660.531677 1315.939819,661.265747 1315.759033,661.999756 
	C1315.759033,661.999756 1315.929688,661.895142 1315.586426,661.983154 
	C1315.089600,662.714600 1314.936035,663.357971 1314.782471,664.001282 
	C1314.782349,664.001282 1314.945801,663.959167 1314.626221,664.042908 
	C1314.069824,664.756714 1313.833008,665.386719 1313.596313,666.016785 
z"/>
<path fill="#302F36" opacity="1.000000" stroke="none" 
	d="
M1130.026611,824.169495 
	C1139.153320,824.169495 1148.280029,824.169495 1158.018555,824.169495 
	C1158.018555,753.834351 1158.018555,683.872375 1158.093262,613.442993 
	C1158.443481,614.574402 1158.958496,616.173157 1158.959473,617.772156 
	C1159.001831,684.866394 1158.947754,751.960693 1159.104248,819.054565 
	C1159.115723,823.950378 1157.640869,825.351990 1152.895142,825.104858 
	C1145.589111,824.724243 1138.249512,824.991211 1130.466797,824.772583 
	C1130.009521,824.561707 1130.026611,824.169495 1130.026611,824.169495 
z"/>
<path fill="#2E2D36" opacity="1.000000" stroke="none" 
	d="
M1064.961060,606.994385 
	C1065.028076,678.944397 1065.095215,750.894348 1065.101440,823.593506 
	C1065.035156,824.542603 1065.029541,824.742432 1065.023926,824.942322 
	C1064.697632,823.533508 1064.086426,822.124878 1064.085693,820.715881 
	C1064.043335,749.785339 1064.053101,678.854858 1064.293945,607.456787 
	C1064.530762,606.989319 1064.961060,606.994385 1064.961060,606.994385 
z"/>
<path fill="#323040" opacity="1.000000" stroke="none" 
	d="
M1174.266357,636.964478 
	C1174.024536,638.385925 1173.136353,639.549866 1173.135986,640.713989 
	C1173.126221,672.492432 1173.207153,704.270874 1173.280029,736.526794 
	C1172.863037,735.309326 1172.073975,733.615417 1172.069336,731.919373 
	C1171.985229,701.286865 1171.970581,670.653931 1172.103394,640.021851 
	C1172.107544,639.065735 1169.818726,635.629639 1174.266357,636.964478 
z"/>
<path fill="#353343" opacity="1.000000" stroke="none" 
	d="
M1322.952881,641.735474 
	C1323.755859,632.147949 1325.745850,622.318665 1325.738403,612.490906 
	C1325.730469,601.825439 1323.863281,591.161316 1322.814453,580.013367 
	C1324.170898,585.606323 1326.293213,591.629822 1326.712158,597.769531 
	C1327.670776,611.812378 1327.488037,625.892090 1324.031982,639.701599 
	C1323.876099,640.324585 1323.521851,640.897949 1322.952881,641.735474 
z"/>
<path fill="#3A3847" opacity="1.000000" stroke="none" 
	d="
M1208.842407,484.501709 
	C1191.651733,482.787292 1174.566162,483.924835 1157.753174,488.713654 
	C1157.118164,488.894501 1156.458130,488.988190 1155.397095,489.114990 
	C1160.623535,487.484924 1166.180176,484.951447 1171.919189,484.431885 
	C1183.426270,483.390167 1195.032349,483.429291 1206.599854,483.103149 
	C1207.291260,483.083649 1208.002930,483.776642 1208.842407,484.501709 
z"/>
<path fill="#484659" opacity="1.000000" stroke="none" 
	d="
M1177.983765,737.156372 
	C1192.530762,736.869019 1207.077759,736.581665 1221.840820,736.608948 
	C1212.249878,737.823792 1202.457031,739.002014 1192.629517,739.500916 
	C1188.069580,739.732239 1183.442627,738.642029 1178.427124,737.863647 
	C1178.008179,737.576294 1177.983765,737.156372 1177.983765,737.156372 
z"/>
<path fill="#4A4A4F" opacity="1.000000" stroke="none" 
	d="
M1065.489502,824.971985 
	C1065.029541,824.742432 1065.035156,824.542603 1065.086182,824.046265 
	C1086.453979,823.834778 1107.776367,823.919739 1129.562622,824.087097 
	C1130.026611,824.169495 1130.009521,824.561707 1129.997437,824.757202 
	C1108.641846,824.968994 1087.298462,824.985291 1065.489502,824.971985 
z"/>
<path fill="#444254" opacity="1.000000" stroke="none" 
	d="
M1065.093506,606.613159 
	C1064.961060,606.994385 1064.530762,606.989319 1064.316406,606.987793 
	C1065.647827,597.496582 1067.193604,588.006958 1069.058594,578.296753 
	C1067.994019,587.461426 1066.609985,596.846741 1065.093506,606.613159 
z"/>
<path fill="#444254" opacity="1.000000" stroke="none" 
	d="
M1073.809326,562.906128 
	C1073.331421,565.361389 1072.548706,568.062134 1071.483398,570.996948 
	C1071.968628,568.537842 1072.736572,565.844727 1073.809326,562.906128 
z"/>
<path fill="#444254" opacity="1.000000" stroke="none" 
	d="
M1070.983398,571.261475 
	C1070.803467,573.278564 1070.312988,575.515198 1069.552002,578.008606 
	C1069.745361,576.003906 1070.209106,573.742432 1070.983398,571.261475 
z"/>
<path fill="#353343" opacity="1.000000" stroke="none" 
	d="
M1322.938721,579.199402 
	C1322.243530,577.581543 1321.576172,575.539124 1320.901855,573.053101 
	C1321.585449,574.664612 1322.276001,576.719727 1322.938721,579.199402 
z"/>
<path fill="#444254" opacity="1.000000" stroke="none" 
	d="
M1075.835083,557.899841 
	C1075.673584,559.141418 1075.190552,560.645813 1074.395508,562.383423 
	C1074.560181,561.131958 1075.036865,559.647278 1075.835083,557.899841 
z"/>
<path fill="#323040" opacity="1.000000" stroke="none" 
	d="
M1177.576050,737.081726 
	C1177.983765,737.156372 1178.008179,737.576294 1178.020752,737.786255 
	C1176.517212,737.774780 1175.001343,737.553345 1173.244507,737.034058 
	C1174.391846,736.826477 1175.780151,736.916748 1177.576050,737.081726 
z"/>
<path fill="#3A3847" opacity="1.000000" stroke="none" 
	d="
M1154.716309,489.039795 
	C1154.184448,489.415039 1153.274414,489.779083 1151.958252,490.144165 
	C1152.480713,489.773041 1153.409424,489.400818 1154.716309,489.039795 
z"/>
<path fill="#353343" opacity="1.000000" stroke="none" 
	d="
M1318.101562,656.803772 
	C1318.045532,656.143311 1318.266235,655.270813 1318.736084,654.165771 
	C1318.783081,654.819397 1318.580688,655.705566 1318.101562,656.803772 
z"/>
<path fill="#353343" opacity="1.000000" stroke="none" 
	d="
M1321.150146,648.097961 
	C1321.056519,647.387024 1321.214233,646.381104 1321.657959,645.134033 
	C1321.763062,645.862915 1321.582275,646.832886 1321.150146,648.097961 
z"/>
<path fill="#353343" opacity="1.000000" stroke="none" 
	d="
M1322.150879,644.786987 
	C1321.986694,644.081482 1322.097290,643.137024 1322.481201,641.960327 
	C1322.645020,642.668030 1322.535400,643.608093 1322.150879,644.786987 
z"/>
<path fill="#3A3847" opacity="1.000000" stroke="none" 
	d="
M1148.757812,491.048035 
	C1148.307983,491.439819 1147.502075,491.811859 1146.343262,492.193085 
	C1146.794067,491.810944 1147.597900,491.419586 1148.757812,491.048035 
z"/>
<path fill="#3A3847" opacity="1.000000" stroke="none" 
	d="
M1143.713135,493.015198 
	C1143.281006,493.419434 1142.494629,493.818298 1141.363647,494.247101 
	C1141.798950,493.854645 1142.578979,493.432220 1143.713135,493.015198 
z"/>
<path fill="#353343" opacity="1.000000" stroke="none" 
	d="
M1318.980469,566.715942 
	C1318.598999,566.271423 1318.214600,565.474548 1317.819336,564.332397 
	C1318.197998,564.779297 1318.587769,565.571472 1318.980469,566.715942 
z"/>
<path fill="#353343" opacity="1.000000" stroke="none" 
	d="
M1319.222900,653.784302 
	C1319.080566,653.301147 1319.213989,652.573425 1319.649780,651.623901 
	C1319.801147,652.114624 1319.649902,652.827209 1319.222900,653.784302 
z"/>
<path fill="#353343" opacity="1.000000" stroke="none" 
	d="
M1319.933838,569.235168 
	C1319.610596,568.979126 1319.276611,568.351990 1318.943359,567.348145 
	C1319.270386,567.602295 1319.596680,568.233215 1319.933838,569.235168 
z"/>
<path fill="#444254" opacity="1.000000" stroke="none" 
	d="
M1087.994385,536.219910 
	C1088.031128,536.629272 1087.781372,537.179016 1087.275513,537.895020 
	C1087.248901,537.494324 1087.478516,536.927246 1087.994385,536.219910 
z"/>
<path fill="#444254" opacity="1.000000" stroke="none" 
	d="
M1094.098877,528.301270 
	C1094.118774,528.722534 1093.837891,529.253418 1093.286133,529.921448 
	C1093.276367,529.509399 1093.537231,528.960205 1094.098877,528.301270 
z"/>
<path fill="#3A3847" opacity="1.000000" stroke="none" 
	d="
M1138.803223,495.071777 
	C1138.622559,495.398102 1138.125122,495.738434 1137.310303,496.088623 
	C1137.490723,495.760925 1137.988525,495.423370 1138.803223,495.071777 
z"/>
<path fill="#3A3847" opacity="1.000000" stroke="none" 
	d="
M1140.915039,494.146790 
	C1140.714355,494.481476 1140.182617,494.800598 1139.319580,495.123383 
	C1139.520142,494.795105 1140.052124,494.463135 1140.915039,494.146790 
z"/>
<path fill="#3A3847" opacity="1.000000" stroke="none" 
	d="
M1145.866211,492.105774 
	C1145.667847,492.422913 1145.146484,492.738708 1144.302246,493.056915 
	C1144.500610,492.741058 1145.021851,492.422760 1145.866211,492.105774 
z"/>
<path fill="#3A3847" opacity="1.000000" stroke="none" 
	d="
M1128.780640,500.086792 
	C1128.615356,500.429413 1128.108887,500.805206 1127.293701,501.305908 
	C1127.469849,500.993866 1127.954712,500.556915 1128.780640,500.086792 
z"/>
<path fill="#3A3847" opacity="1.000000" stroke="none" 
	d="
M1130.768677,499.052856 
	C1130.597168,499.383728 1130.110962,499.735474 1129.310303,500.108704 
	C1129.481934,499.778107 1129.968018,499.425934 1130.768677,499.052856 
z"/>
<path fill="#353343" opacity="1.000000" stroke="none" 
	d="
M1320.160522,651.079529 
	C1320.038574,650.577332 1320.174805,649.751038 1320.633911,648.667114 
	C1320.777466,649.191528 1320.598022,649.973450 1320.160522,651.079529 
z"/>
<path fill="#353343" opacity="1.000000" stroke="none" 
	d="
M1320.934326,572.185059 
	C1320.607300,571.874207 1320.258423,571.157166 1319.900146,570.001709 
	C1320.231079,570.301880 1320.571655,571.040344 1320.934326,572.185059 
z"/>
<path fill="#3A3847" opacity="1.000000" stroke="none" 
	d="
M1132.759521,498.042969 
	C1132.581055,498.359833 1132.091797,498.702179 1131.295532,499.065186 
	C1131.475342,498.746735 1131.962036,498.407593 1132.759521,498.042969 
z"/>
<path fill="#353343" opacity="1.000000" stroke="none" 
	d="
M1317.116943,659.170776 
	C1317.021851,658.718018 1317.166626,657.984436 1317.616455,657.045654 
	C1317.733398,657.523682 1317.545166,658.206787 1317.116943,659.170776 
z"/>
<path fill="#353343" opacity="1.000000" stroke="none" 
	d="
M1316.042969,661.752258 
	C1315.939819,661.265747 1316.120605,660.531677 1316.617920,659.586060 
	C1316.732056,660.084656 1316.529419,660.794678 1316.042969,661.752258 
z"/>
<path fill="#353343" opacity="1.000000" stroke="none" 
	d="
M1315.055298,663.805908 
	C1314.936035,663.357971 1315.089600,662.714600 1315.530029,661.900513 
	C1315.653809,662.356750 1315.490967,662.983582 1315.055298,663.805908 
z"/>
<path fill="#353343" opacity="1.000000" stroke="none" 
	d="
M1313.898193,665.844604 
	C1313.833008,665.386719 1314.069824,664.756714 1314.601562,663.962158 
	C1314.664429,664.422668 1314.432251,665.047607 1313.898193,665.844604 
z"/>
<path fill="#3A3847" opacity="1.000000" stroke="none" 
	d="
M1151.267456,490.088867 
	C1151.011230,490.435547 1150.376709,490.781281 1149.360352,491.121887 
	C1149.615479,490.773804 1150.252197,490.430847 1151.267456,490.088867 
z"/>
<path fill="#3A3847" opacity="1.000000" stroke="none" 
	d="
M1134.768555,497.048187 
	C1134.586914,497.365204 1134.094360,497.703583 1133.291260,498.051910 
	C1133.473022,497.731079 1133.965210,497.400330 1134.768555,497.048187 
z"/>
<path fill="#3A3847" opacity="1.000000" stroke="none" 
	d="
M1136.780029,496.058044 
	C1136.601807,496.383148 1136.109863,496.720978 1135.301147,497.068298 
	C1135.478394,496.742126 1135.972412,496.406464 1136.780029,496.058044 
z"/>
<path fill="#444254" opacity="1.000000" stroke="none" 
	d="
M1090.118652,533.318237 
	C1090.155273,533.755493 1089.889526,534.308289 1089.342529,534.989319 
	C1089.312988,534.556274 1089.564575,533.994995 1090.118652,533.318237 
z"/>
<path fill="#444254" opacity="1.000000" stroke="none" 
	d="
M1085.971191,539.208008 
	C1086.017334,539.619629 1085.782837,540.180664 1085.287109,540.905029 
	C1085.247437,540.498047 1085.468872,539.927795 1085.971191,539.208008 
z"/>
<path fill="#444254" opacity="1.000000" stroke="none" 
	d="
M1084.014160,542.233643 
	C1084.083740,542.672729 1083.864868,543.261597 1083.363525,543.994507 
	C1083.296021,543.553467 1083.510864,542.968384 1084.014160,542.233643 
z"/>
<path fill="#444254" opacity="1.000000" stroke="none" 
	d="
M1082.884277,544.175659 
	C1082.941162,544.575195 1082.731323,545.139587 1082.272217,545.883423 
	C1082.221069,545.488831 1082.419312,544.914612 1082.884277,544.175659 
z"/>
<path fill="#444254" opacity="1.000000" stroke="none" 
	d="
M1081.066162,547.276611 
	C1081.166870,547.730774 1080.971680,548.342163 1080.493408,549.107971 
	C1080.396973,548.652832 1080.583740,548.043335 1081.066162,547.276611 
z"/>
<path fill="#444254" opacity="1.000000" stroke="none" 
	d="
M1080.031982,549.249634 
	C1080.126587,549.701538 1079.930664,550.313538 1079.447266,551.074219 
	C1079.353638,550.618530 1079.547607,550.014160 1080.031982,549.249634 
z"/>
<path fill="#444254" opacity="1.000000" stroke="none" 
	d="
M1078.981689,551.223450 
	C1079.090332,551.671631 1078.915894,552.292908 1078.458252,553.073975 
	C1078.349487,552.621338 1078.524170,552.008972 1078.981689,551.223450 
z"/>
<path fill="#444254" opacity="1.000000" stroke="none" 
	d="
M1077.969238,553.257080 
	C1078.068237,553.743652 1077.868408,554.456360 1077.358887,555.377075 
	C1077.256348,554.884521 1077.463501,554.183899 1077.969238,553.257080 
z"/>
<path fill="#353343" opacity="1.000000" stroke="none" 
	d="
M1314.864014,556.872070 
	C1314.520508,556.689331 1314.163574,556.153503 1313.678223,555.301270 
	C1313.983276,555.496277 1314.416748,556.007629 1314.864014,556.872070 
z"/>
<path fill="#353343" opacity="1.000000" stroke="none" 
	d="
M1315.941895,559.211426 
	C1315.587891,558.973633 1315.210938,558.360413 1314.810059,557.368530 
	C1315.163818,557.605286 1315.541504,558.220581 1315.941895,559.211426 
z"/>
<path fill="#353343" opacity="1.000000" stroke="none" 
	d="
M1317.896240,563.813354 
	C1317.568970,563.556763 1317.227051,562.938843 1316.875854,561.928711 
	C1317.204956,562.174988 1317.543335,562.813477 1317.896240,563.813354 
z"/>
<path fill="#444254" opacity="1.000000" stroke="none" 
	d="
M1095.757080,526.059021 
	C1095.891113,526.258911 1095.821289,526.649170 1095.446777,527.155640 
	C1095.278931,526.931030 1095.416138,526.590271 1095.757080,526.059021 
z"/>
<path fill="#444254" opacity="1.000000" stroke="none" 
	d="
M1076.828125,555.925964 
	C1076.958252,556.150757 1076.846558,556.673279 1076.400024,557.417236 
	C1076.238770,557.167053 1076.412354,556.695374 1076.828125,555.925964 
z"/>
<path fill="#444254" opacity="1.000000" stroke="none" 
	d="
M1095.024170,527.227295 
	C1095.123779,527.455322 1094.957764,527.810364 1094.506958,528.268921 
	C1094.401001,528.033081 1094.579956,527.693665 1095.024170,527.227295 
z"/>
<path fill="#444254" opacity="1.000000" stroke="none" 
	d="
M1088.875488,535.149902 
	C1088.969238,535.363770 1088.820923,535.717468 1088.389648,536.164856 
	C1088.282349,535.935608 1088.458008,535.612610 1088.875488,535.149902 
z"/>
<path fill="#353343" opacity="1.000000" stroke="none" 
	d="
M1316.866943,561.232483 
	C1316.645142,561.206360 1316.317993,560.822815 1315.965454,560.028320 
	C1316.213867,560.036621 1316.487671,560.455872 1316.866943,561.232483 
z"/>
<path fill="#444254" opacity="1.000000" stroke="none" 
	d="
M1081.827759,546.143799 
	C1081.952759,546.355774 1081.845703,546.722351 1081.467041,547.205627 
	C1081.328979,546.981079 1081.462280,546.639709 1081.827759,546.143799 
z"/>
<path fill="#444254" opacity="1.000000" stroke="none" 
	d="
M1092.821411,530.119141 
	C1092.898193,530.320312 1092.738159,530.646667 1092.309570,531.061523 
	C1092.222290,530.848206 1092.403442,530.546326 1092.821411,530.119141 
z"/>
<path fill="#444254" opacity="1.000000" stroke="none" 
	d="
M1091.904175,531.155518 
	C1091.985229,531.369629 1091.817261,531.713623 1091.364624,532.144592 
	C1091.271729,531.916199 1091.463501,531.600769 1091.904175,531.155518 
z"/>
<path fill="#444254" opacity="1.000000" stroke="none" 
	d="
M1084.832275,541.139038 
	C1084.939575,541.350769 1084.811401,541.708862 1084.406982,542.171021 
	C1084.286133,541.945190 1084.441528,541.615295 1084.832275,541.139038 
z"/>
<path fill="#444254" opacity="1.000000" stroke="none" 
	d="
M1090.984131,532.200989 
	C1091.094238,532.421814 1090.948608,532.783691 1090.527832,533.263794 
	C1090.411133,533.035278 1090.569702,532.688660 1090.984131,532.200989 
z"/>
<path fill="#444254" opacity="1.000000" stroke="none" 
	d="
M1086.822388,538.130981 
	C1086.921631,538.340942 1086.785278,538.691040 1086.372803,539.138184 
	C1086.260010,538.913879 1086.423462,538.592468 1086.822388,538.130981 
z"/>
<path fill="#FEFEFE" opacity="1.000000" stroke="none" 
	d="
M1149.648804,302.999756 
	C1149.639526,289.001282 1149.697876,275.502197 1149.577515,262.004730 
	C1149.545044,258.357971 1149.151855,254.688492 1148.600586,251.078888 
	C1147.909912,246.556732 1145.708130,243.449188 1140.565186,243.092712 
	C1135.443359,242.737701 1131.916992,244.994415 1130.711914,249.655472 
	C1129.562256,254.102585 1129.087280,258.835297 1129.069092,263.445465 
	C1128.963867,289.941864 1129.082886,316.439178 1129.125244,342.936157 
	C1129.128174,344.733490 1129.125854,346.530823 1129.125854,348.596161 
	C1108.255127,348.596161 1087.867432,348.596161 1066.896851,348.596161 
	C1066.896851,346.454254 1066.901123,344.672241 1066.896118,342.890228 
	C1066.817383,314.726898 1066.764648,286.563385 1066.615845,258.400421 
	C1066.600952,255.596558 1066.156128,252.766296 1065.635132,250.000229 
	C1064.782715,245.475342 1061.888428,243.179337 1057.296875,242.855194 
	C1052.687500,242.529770 1049.181274,244.474594 1048.068604,248.792191 
	C1046.841309,253.554520 1046.108032,258.580170 1046.087769,263.494934 
	C1045.979370,289.824371 1046.160645,316.155060 1046.240479,342.485291 
	C1046.246094,344.306641 1046.241333,346.127960 1046.241333,348.378571 
	C1025.421631,348.378571 1004.895569,348.378571 984.107910,348.378571 
	C983.988953,346.899475 983.796753,345.613617 983.795166,344.327484 
	C983.755554,311.831207 983.554016,279.333710 983.767883,246.838974 
	C983.953308,218.664566 1002.556824,193.236618 1028.797974,185.418991 
	C1051.397461,178.686310 1071.884399,183.525574 1090.119751,198.274994 
	C1092.830688,200.467789 1095.366455,202.877258 1098.101807,205.291016 
	C1102.530518,201.795044 1106.765991,198.110016 1111.334839,194.899139 
	C1146.943237,169.873825 1195.722656,185.401230 1207.476685,225.925247 
	C1210.262573,235.529938 1211.250610,245.907410 1211.455322,255.962143 
	C1212.061890,285.781921 1211.866577,315.618073 1211.974365,345.447845 
	C1211.977783,346.426788 1211.866577,347.406128 1211.785889,348.775696 
	C1191.253662,348.775696 1170.872925,348.775696 1149.649170,348.775696 
	C1149.649170,333.659882 1149.649170,318.579834 1149.648804,302.999756 
z"/>
</svg>